HIERARCHY
ROOT Hips
{
	OFFSET 0.00000 0.00000 0.00000
	CHANNELS 6 Xposition Yposition Zposition Zrotation Yrotation Xrotation 
	JOINT LHipJoint
	{
		OFFSET 0 0 0
		CHANNELS 3 Zrotation Yrotation Xrotation
		JOINT LeftHip
		{
			OFFSET 1.34019 -1.87553 0.90315
			CHANNELS 3 Zrotation Yrotation Xrotation
			JOINT LeftKnee
			{
				OFFSET 2.55316 -7.01474 0.00000
				CHANNELS 3 Zrotation Yrotation Xrotation
				JOINT LeftAnkle
				{
					OFFSET 2.64657 -7.27139 0.00000
					CHANNELS 3 Zrotation Yrotation Xrotation
					JOINT LeftToe
					{
						OFFSET 0.24207 -0.66507 2.14489
						CHANNELS 3 Zrotation Yrotation Xrotation
						End Site
						{
							OFFSET 0.00000 -0.00000 1.12451
						}
					}
				}
			}
		}
	}
	JOINT RHipJoint
	{
		OFFSET 0 0 0
		CHANNELS 3 Zrotation Yrotation Xrotation
		JOINT RightHip
		{
			OFFSET -1.28320 -1.87553 0.90315
			CHANNELS 3 Zrotation Yrotation Xrotation
			JOINT RightKnee
			{
				OFFSET -2.60484 -7.15674 0.00000
				CHANNELS 3 Zrotation Yrotation Xrotation
				JOINT RightAnkle
				{
					OFFSET -2.60296 -7.15159 0.00000
					CHANNELS 3 Zrotation Yrotation Xrotation
					JOINT RightToe
					{
						OFFSET -0.31082 -0.85398 2.28998
						CHANNELS 3 Zrotation Yrotation Xrotation
						End Site
						{
							OFFSET -0.00000 -0.00000 1.21611
						}
					}
				}
			}
		}
	}
	JOINT lowerback
	{
		OFFSET 0 0 0
		CHANNELS 3 Zrotation Yrotation Xrotation
		JOINT Chest
		{
			OFFSET -0.00160 2.05581 -0.15156
			CHANNELS 3 Zrotation Yrotation Xrotation
			JOINT Chest2
			{
				OFFSET 0.04594 2.06326 -0.01617
				CHANNELS 3 Zrotation Yrotation Xrotation
				JOINT lowerneck
				{
					OFFSET 0 0 0
					CHANNELS 3 Zrotation Yrotation Xrotation
					JOINT Neck
					{
						OFFSET 0.03753 1.73883 0.26751
						CHANNELS 3 Zrotation Yrotation Xrotation
						JOINT Head
						{
							OFFSET -0.09795 1.76129 -0.31794
							CHANNELS 3 Zrotation Yrotation Xrotation
							End Site
							{
								OFFSET -0.03611 1.79987 -0.13846
							}
						}
					}
				}
				JOINT LeftCollar
				{
					OFFSET 0 0 0
					CHANNELS 3 Zrotation Yrotation Xrotation
					JOINT LeftShoulder
					{
						OFFSET 3.30667 1.29205 -0.22445
CHANNELS 3 Zrotation Xrotation Yrotation
						JOINT LeftElbow
						{
OFFSET 0 -4.927850 -0.000000
CHANNELS 3 Zrotation Xrotation Yrotation
							JOINT LeftWrist
							{
OFFSET 0 -3.440520 0.000000
CHANNELS 3 Zrotation Xrotation Yrotation
								JOINT lhand
								{
									OFFSET 0 0 0
CHANNELS 3 Zrotation Xrotation Yrotation
									JOINT LFingers
									{
OFFSET 0 -0.654330 0.000000
CHANNELS 3 Zrotation Xrotation Yrotation
										End Site
										{
OFFSET 0 -0.527530 0.000000
										}
									}
								}
								JOINT LThumb
								{
OFFSET 0 0.000000 0.000000
CHANNELS 3 Zrotation Xrotation Yrotation
									End Site
									{
OFFSET 0 -0.535590 0.535590
									}
								}
							}
						}
					}
				}
				JOINT RightCollar
				{
					OFFSET 0 0 0
					CHANNELS 3 Zrotation Yrotation Xrotation
					JOINT RightShoulder
					{
						OFFSET -3.20032 1.49783 -0.27688
CHANNELS 3 Zrotation Xrotation Yrotation
						JOINT RightElbow
						{
OFFSET 0 -5.091810 -0.000000
CHANNELS 3 Zrotation Xrotation Yrotation
							JOINT RightWrist
							{
OFFSET 0 -3.498650 -0.000000
CHANNELS 3 Zrotation Xrotation Yrotation
								JOINT rhand
								{
									OFFSET 0 0 0
CHANNELS 3 Zrotation Xrotation Yrotation
									JOINT RFingers
									{
OFFSET 0 -0.666410 0.000000
CHANNELS 3 Zrotation Xrotation Yrotation
										End Site
										{
OFFSET 0 -0.537280 0.000000
										}
									}
								}
								JOINT RThumb
								{
OFFSET 0 0.000000 0.000000
CHANNELS 3 Zrotation Xrotation Yrotation
									End Site
									{
OFFSET 0 -0.545480 0.545480
									}
								}
							}
						}
					}
				}
			}
		}
	}
}
MOTION
Frames: 9
Frame Time: 0.008333333333333333
0.781709 17.888913 -4.197086 -16.842765 3.080400 -0.257450 0.000000 0.000000 0.000000 2.117248 -3.965466 -9.071899 3.584739 11.586239 34.283663 0.430140 11.011663 -20.842343 0.371458 -3.914733 -10.837040 0.000000 0.000000 0.000000 28.358943 -8.403655 -12.865764 -6.351334 -14.760319 46.375899 0.003427 -1.155671 -0.898929 -0.619659 5.037380 -14.015207 -11.863075 -0.696961 9.677436 -2.902791 -2.262434 1.468499 3.874459 -0.982313 -3.552501 4.560110 2.664953 -14.706522 11.001792 0.372667 18.015396 2.968195 1.590889 8.076461 0.000000 0.000000 0.000000 48.865486 6.024517 27.958244 24.035580 -35.201814 7.727019 19.414224 -8.847161 -3.776351 0.000000 0.000000 0.000000 -7.125000 0.000000 0.000000 -5.917520 33.938472 -1.612894 0.000000 0.000000 0.000000 -63.590889 15.729812 -27.776535 -21.230865 -32.096844 -6.172135 -18.046417 -5.650622 1.344017 0.000000 0.000000 0.000000 7.125000 0.000000 0.000000 6.807345 31.349468 2.286139
0.771055 17.928199 -4.124706 -17.428947 3.951392 0.016981 0.000000 0.000000 0.000000 2.780641 -4.693325 -8.923597 3.446723 11.385248 33.590447 0.412595 11.012411 -20.664765 0.347260 -3.786345 -10.476424 0.000000 0.000000 0.000000 28.985830 -8.277295 -13.716206 -6.540266 -14.932167 47.113230 0.003412 -1.591377 0.663151 -0.525217 4.643800 -12.895335 -12.196550 -0.773000 9.982832 -3.088889 -2.429539 1.668998 3.886126 -1.070977 -3.477649 4.411413 2.596206 -14.718668 12.081139 0.118964 17.817204 3.324728 1.557758 8.029876 0.000000 0.000000 0.000000 48.447894 5.373288 27.784464 23.902474 -35.060986 7.650442 19.362068 -8.560561 -3.640205 0.000000 0.000000 0.000000 -7.125000 0.000000 0.000000 -5.947597 33.793128 -1.642224 0.000000 0.000000 0.000000 -63.571352 16.123186 -28.205134 -21.177359 -32.034762 -6.143712 -17.857245 -5.603530 1.301307 0.000000 0.000000 0.000000 7.125000 0.000000 0.000000 6.954040 31.301402 2.344188
0.765604 17.964003 -4.046971 -17.887069 4.686482 0.298870 0.000000 0.000000 0.000000 3.259524 -5.378613 -8.691176 3.306562 11.175426 32.873818 0.381972 11.196844 -20.548874 0.327575 -3.678658 -10.174431 0.000000 0.000000 0.000000 29.383732 -8.009822 -14.555170 -6.748048 -15.115925 47.914626 -0.014491 -1.805359 2.309623 -0.458052 4.341471 -12.039376 -12.504129 -0.828921 10.238153 -3.265887 -2.565793 1.815545 3.888951 -1.141259 -3.436681 4.265679 2.531724 -14.746224 12.997277 -0.111610 17.754274 3.633808 1.526288 8.032448 0.000000 0.000000 0.000000 47.913543 4.885309 27.557171 23.778065 -34.928688 7.579100 19.190872 -8.283513 -3.527991 0.000000 0.000000 0.000000 -7.125000 0.000000 0.000000 -6.076708 33.668971 -1.696532 0.000000 0.000000 0.000000 -63.635585 16.465637 -28.386333 -21.123681 -31.972360 -6.115242 -17.755013 -5.585882 1.303322 0.000000 0.000000 0.000000 7.125000 0.000000 0.000000 7.035482 31.301630 2.371958
0.766661 17.992356 -3.966796 -18.258290 5.271457 0.561247 0.000000 0.000000 0.000000 3.598894 -5.995574 -8.392849 3.177132 10.976375 32.200368 0.336775 11.557439 -20.479698 0.319502 -3.633633 -10.048161 0.000000 0.000000 0.000000 29.598217 -7.629244 -15.369969 -6.986223 -15.320133 48.821917 -0.049864 -1.818539 3.966099 -0.442037 4.265895 -11.825912 -12.695530 -0.868981 10.450280 -3.452385 -2.665606 1.939742 3.812889 -1.193777 -3.406388 4.099657 2.471425 -14.647325 13.781687 -0.285803 17.643092 3.903703 1.499380 7.993405 0.000000 0.000000 0.000000 47.342336 4.488813 27.427254 23.625466 -34.765694 7.491961 19.014932 -7.960107 -3.572158 0.000000 0.000000 0.000000 -7.125000 0.000000 0.000000 -6.224023 33.709170 -1.732057 0.000000 0.000000 0.000000 -63.728289 16.713548 -28.397611 -21.064132 -31.903147 -6.083785 -17.682886 -5.700848 1.129374 0.000000 0.000000 0.000000 7.125000 0.000000 0.000000 7.078187 31.119240 2.417720
0.773727 18.016187 -3.882630 -18.378060 5.720160 0.811771 0.000000 0.000000 0.000000 3.605050 -6.575479 -7.970157 3.048260 10.772714 31.517140 0.277620 12.075126 -20.455058 0.317082 -3.619629 -10.009088 0.000000 0.000000 0.000000 29.464686 -7.169812 -16.191550 -7.268100 -15.553544 49.881143 -0.103280 -1.705390 5.714376 -0.430637 4.211204 -11.671663 -12.932528 -0.878999 10.608037 -3.690456 -2.723158 2.076692 3.699903 -1.227856 -3.338944 3.895957 2.399731 -14.548731 14.491375 -0.452986 17.544414 4.156260 1.465637 7.958562 0.000000 0.000000 0.000000 46.723306 4.107933 27.458086 23.463251 -34.591550 7.399615 18.883451 -7.772556 -3.535322 0.000000 0.000000 0.000000 -7.125000 0.000000 0.000000 -6.327667 33.665947 -1.767783 0.000000 0.000000 0.000000 -63.805616 16.898441 -28.363866 -21.012531 -31.842960 -6.056552 -17.640105 -5.793539 0.938996 0.000000 0.000000 0.000000 7.125000 0.000000 0.000000 7.096319 30.920287 2.458050
0.782889 18.036123 -3.796138 -18.227188 6.014881 1.078690 0.000000 0.000000 0.000000 3.286592 -7.078179 -7.438071 2.912442 10.551804 30.782874 0.210901 12.665247 -20.457605 0.321510 -3.644523 -10.078726 0.000000 0.000000 0.000000 29.010994 -6.526635 -17.086144 -7.616727 -15.829642 51.169551 -0.173167 -1.602090 7.457047 -0.362483 3.866114 -10.700481 -13.320084 -0.854909 10.789415 -3.960485 -2.765563 2.151736 3.634724 -1.246434 -3.347373 3.743204 2.345871 -14.477993 15.107948 -0.605737 17.551581 4.375681 1.439645 7.964371 0.000000 0.000000 0.000000 46.026181 3.936759 27.531930 23.375267 -34.496672 7.349727 18.778291 -7.827045 -3.436583 0.000000 0.000000 0.000000 -7.125000 0.000000 0.000000 -6.403794 33.558681 -1.806084 0.000000 0.000000 0.000000 -63.882983 17.034588 -28.207098 -20.985998 -31.811972 -6.042556 -17.669455 -5.819145 0.924091 0.000000 0.000000 0.000000 7.125000 0.000000 0.000000 7.071940 30.905173 2.452110
0.791453 18.050272 -3.708806 -17.960620 6.104652 1.333294 0.000000 0.000000 0.000000 2.853899 -7.339479 -6.857406 2.780479 10.330896 30.055201 0.153330 13.185084 -20.492977 0.335398 -3.721644 -10.294923 0.000000 0.000000 0.000000 28.447394 -5.629039 -18.010499 -8.033158 -16.143612 52.682053 -0.238835 -1.583795 8.813264 -0.251884 3.229031 -8.917161 -13.771478 -0.793756 10.990243 -4.221868 -2.776017 2.189299 3.609780 -1.244300 -3.408001 3.708702 2.339027 -14.417070 15.573149 -0.685492 17.514402 4.530425 1.439233 7.952736 0.000000 0.000000 0.000000 45.321424 3.972316 27.673904 23.321073 -34.438046 7.319016 18.711826 -7.957143 -3.353538 0.000000 0.000000 0.000000 -7.125000 0.000000 0.000000 -6.449934 33.469232 -1.833248 0.000000 0.000000 0.000000 -63.916345 17.009586 -28.104951 -20.931275 -31.748036 -6.013781 -17.642763 -5.766215 0.770568 0.000000 0.000000 0.000000 7.125000 0.000000 0.000000 7.080635 30.744870 2.482502
0.799242 18.060523 -3.619562 -17.671890 6.095011 1.557256 0.000000 0.000000 0.000000 2.445779 -7.303960 -6.348325 2.666995 10.135238 29.415967 0.124056 13.455461 -20.526794 0.343160 -3.764250 -10.414342 0.000000 0.000000 0.000000 27.904476 -4.674652 -18.960683 -8.486879 -16.465525 54.297482 -0.246488 -1.741230 8.931484 -0.139010 2.397447 -6.605581 -14.156056 -0.716176 11.216149 -4.445791 -2.762648 2.233560 3.585063 -1.230788 -3.480632 3.695901 2.333694 -14.451378 15.928559 -0.745655 17.406634 4.645609 1.438417 7.932939 0.000000 0.000000 0.000000 44.655674 4.081213 27.861313 23.270068 -34.382766 7.290271 18.695275 -8.073686 -3.356523 0.000000 0.000000 0.000000 -7.125000 0.000000 0.000000 -6.463641 33.471923 -1.836781 0.000000 0.000000 0.000000 -63.849620 16.928089 -28.041635 -20.907464 -31.720200 -6.001206 -17.683305 -5.743047 0.874317 0.000000 0.000000 0.000000 7.125000 0.000000 0.000000 7.056957 30.853565 2.455641
0.805368 18.070191 -3.526043 -17.369212 6.113607 1.739858 0.000000 0.000000 0.000000 2.078807 -7.094786 -5.942182 2.575312 9.973505 28.891024 0.124307 13.447828 -20.520124 0.337132 -3.731044 -10.321277 0.000000 0.000000 0.000000 27.407984 -3.862250 -19.924109 -8.915760 -16.753189 55.798290 -0.165524 -2.397201 7.226569 -0.091046 1.946411 -5.357643 -14.462254 -0.659458 11.450305 -4.634496 -2.763713 2.324849 3.555844 -1.229779 -3.506417 3.621501 2.317315 -14.590247 16.302573 -0.826898 17.339949 4.780057 1.431872 7.947676 0.000000 0.000000 0.000000 44.063666 4.169010 28.105727 23.182521 -34.287708 7.240801 18.677310 -8.113198 -3.341287 0.000000 0.000000 0.000000 -7.125000 0.000000 0.000000 -6.476727 33.455359 -1.843180 0.000000 0.000000 0.000000 -63.694982 16.789875 -28.045897 -20.906723 -31.719327 -6.000825 -17.791078 -5.777587 1.149540 0.000000 0.000000 0.000000 7.125000 0.000000 0.000000 6.994036 31.141970 2.384721
